<?xml version="1.0" standalone="no"?>
<svg xmlns="http://www.w3.org/2000/svg" viewBox="0 0 1440 320">
    <path fill="#fff" fill-opacity="1" d="M0,160L26.7,133.3C53.3,107,107,53,160,74.7C213.3,96,267,192,320,229.3C373.3,267,427,245,480,197.3C533.3,149,587,75,640,80C693.3,85,747,171,800,176C853.3,181,907,107,960,112C1013.3,117,1067,203,1120,218.7C1173.3,235,1227,181,1280,154.7C1333.3,128,1387,128,1413,128L1440,128L1440,320L1413.3,320C1386.7,320,1333,320,1280,320C1226.7,320,1173,320,1120,320C1066.7,320,1013,320,960,320C906.7,320,853,320,800,320C746.7,320,693,320,640,320C586.7,320,533,320,480,320C426.7,320,373,320,320,320C266.7,320,213,320,160,320C106.7,320,53,320,27,320L0,320Z"></path>
</svg>